{"asset":{"version":"2.0","generator":"Ronu KIRI shell conversion"},"scene":0,"scenes":[{"nodes":[0,1,2,3,4,5,6,7,8,9,10,11,12,13,14,15,16,17,18,19,20,21,22,23,24,25,26,27,28]}],"nodes":[{"name":"wall_FD69EFDE_4503_4AE3_B1F8_A1102AB32C73","mesh":0},{"name":"wall_1D6CD807_D557_4CF2_A3BB_DB35FFC2E115","mesh":1},{"name":"wall_D62EF505_FDFE_4ABE_B149_F9E5A63764D2","mesh":2},{"name":"wall_EEAEDAF0_1FB9_48FA_8899_41F5094A7AC2","mesh":3},{"name":"wall_60526666_19CA_4743_9980_5BD298D6B6F1","mesh":4},{"name":"wall_0ECBC771_DC85_4AED_BDDB_A0D8FA9E0E55","mesh":5},{"name":"wall_397D3D71_AF61_4756_BC7D_12F6CB82FF14","mesh":6},{"name":"wall_3EFC6181_3009_454C_BCCB_9A341FADEF60","mesh":7},{"name":"wall_8A2E41B0_BA9A_42F0_9E9A_773030CF5C89","mesh":8},{"name":"wall_78C4E3E7_3EE0_47EA_A118_39A6CDED6EAA","mesh":9},{"name":"wall_44F47DA4_E13D_4489_BE81_DF0DB033AD0A","mesh":10},{"name":"wall_CB4B0DDB_0B11_47F7_ABFC_2C9A485AE867","mesh":11},{"name":"wall_3C52DF01_3C0B_4A15_A962_949868687E5E","mesh":12},{"name":"wall_0A819AD8_99BA_4970_8C0C_AD29C332E9E1","mesh":13},{"name":"wall_4509AEFD_5B2B_414F_A7AB_5DEA8B7016AC","mesh":14},{"name":"wall_52325B0E_3EDC_464C_8081_E058B63F81A7","mesh":15},{"name":"wall_A6559126_DA4B_442B_B257_ACC2D1EB21AD","mesh":16},{"name":"wall_0F9D36FC_AF81_4447_9552_339A44212EA9","mesh":17},{"name":"wall_A661B28B_2103_433F_9609_7BCE0EDCA5D6","mesh":18},{"name":"wall_D9A7B3A5_C8DE_4731_911A_DD48FDB9496C","mesh":19},{"name":"wall_6C2301E5_A278_4721_9C8B_7CD2B81A8D99","mesh":20},{"name":"wall_A918F23E_429F_47E1_9FA4_AA162776B09F","mesh":21},{"name":"window_E83EAEF5_A0B6_4A00_8EFE_84C8F0777187","mesh":22},{"name":"window_7C7716B4_1505_4811_88CE_323FD7BAD581","mesh":23},{"name":"door_isOpen__false__D6D61939_1EAC_4153_AB75_DCA0E8F6C176","mesh":24},{"name":"Obj_Handrail","mesh":25},{"name":"Obj_Handrail_001","mesh":26},{"name":"Obj_Stair","mesh":27},{"name":"floor_0D5E5200_8753_470B_84FD_8640A355DDE1","mesh":28}],"meshes":[{"name":"wall_FD69EFDE_4503_4AE3_B1F8_A1102AB32C73","primitives":[{"attributes":{"POSITION":0},"indices":1,"material":0}]},{"name":"wall_1D6CD807_D557_4CF2_A3BB_DB35FFC2E115","primitives":[{"attributes":{"POSITION":2},"indices":3,"material":0}]},{"name":"wall_D62EF505_FDFE_4ABE_B149_F9E5A63764D2","primitives":[{"attributes":{"POSITION":4},"indices":5,"material":0}]},{"name":"wall_EEAEDAF0_1FB9_48FA_8899_41F5094A7AC2","primitives":[{"attributes":{"POSITION":6},"indices":7,"material":0}]},{"name":"wall_60526666_19CA_4743_9980_5BD298D6B6F1","primitives":[{"attributes":{"POSITION":8},"indices":9,"material":0}]},{"name":"wall_0ECBC771_DC85_4AED_BDDB_A0D8FA9E0E55","primitives":[{"attributes":{"POSITION":10},"indices":11,"material":0}]},{"name":"wall_397D3D71_AF61_4756_BC7D_12F6CB82FF14","primitives":[{"attributes":{"POSITION":12},"indices":13,"material":0}]},{"name":"wall_3EFC6181_3009_454C_BCCB_9A341FADEF60","primitives":[{"attributes":{"POSITION":14},"indices":15,"material":0}]},{"name":"wall_8A2E41B0_BA9A_42F0_9E9A_773030CF5C89","primitives":[{"attributes":{"POSITION":16},"indices":17,"material":0}]},{"name":"wall_78C4E3E7_3EE0_47EA_A118_39A6CDED6EAA","primitives":[{"attributes":{"POSITION":18},"indices":19,"material":0}]},{"name":"wall_44F47DA4_E13D_4489_BE81_DF0DB033AD0A","primitives":[{"attributes":{"POSITION":20},"indices":21,"material":0}]},{"name":"wall_CB4B0DDB_0B11_47F7_ABFC_2C9A485AE867","primitives":[{"attributes":{"POSITION":22},"indices":23,"material":0}]},{"name":"wall_3C52DF01_3C0B_4A15_A962_949868687E5E","primitives":[{"attributes":{"POSITION":24},"indices":25,"material":0}]},{"name":"wall_0A819AD8_99BA_4970_8C0C_AD29C332E9E1","primitives":[{"attributes":{"POSITION":26},"indices":27,"material":0}]},{"name":"wall_4509AEFD_5B2B_414F_A7AB_5DEA8B7016AC","primitives":[{"attributes":{"POSITION":28},"indices":29,"material":0}]},{"name":"wall_52325B0E_3EDC_464C_8081_E058B63F81A7","primitives":[{"attributes":{"POSITION":30},"indices":31,"material":0}]},{"name":"wall_A6559126_DA4B_442B_B257_ACC2D1EB21AD","primitives":[{"attributes":{"POSITION":32},"indices":33,"material":0}]},{"name":"wall_0F9D36FC_AF81_4447_9552_339A44212EA9","primitives":[{"attributes":{"POSITION":34},"indices":35,"material":0}]},{"name":"wall_A661B28B_2103_433F_9609_7BCE0EDCA5D6","primitives":[{"attributes":{"POSITION":36},"indices":37,"material":0}]},{"name":"wall_D9A7B3A5_C8DE_4731_911A_DD48FDB9496C","primitives":[{"attributes":{"POSITION":38},"indices":39,"material":0}]},{"name":"wall_6C2301E5_A278_4721_9C8B_7CD2B81A8D99","primitives":[{"attributes":{"POSITION":40},"indices":41,"material":0}]},{"name":"wall_A918F23E_429F_47E1_9FA4_AA162776B09F","primitives":[{"attributes":{"POSITION":42},"indices":43,"material":0}]},{"name":"window_E83EAEF5_A0B6_4A00_8EFE_84C8F0777187","primitives":[{"attributes":{"POSITION":44},"indices":45,"material":1}]},{"name":"window_7C7716B4_1505_4811_88CE_323FD7BAD581","primitives":[{"attributes":{"POSITION":46},"indices":47,"material":1}]},{"name":"door_isOpen__false__D6D61939_1EAC_4153_AB75_DCA0E8F6C176","primitives":[{"attributes":{"POSITION":48},"indices":49,"material":0}]},{"name":"Obj_Handrail","primitives":[{"attributes":{"POSITION":50},"indices":51,"material":0}]},{"name":"Obj_Handrail_001","primitives":[{"attributes":{"POSITION":52},"indices":53,"material":0}]},{"name":"Obj_Stair","primitives":[{"attributes":{"POSITION":54},"indices":55,"material":0}]},{"name":"floor_0D5E5200_8753_470B_84FD_8640A355DDE1","primitives":[{"attributes":{"POSITION":56},"indices":57,"material":0}]}],"materials":[{"name":"Shell","doubleSided":true,"pbrMetallicRoughness":{"baseColorFactor":[0.8,0.8,0.78,1],"metallicFactor":0,"roughnessFactor":1}},{"name":"Opening","doubleSided":true,"alphaMode":"BLEND","pbrMetallicRoughness":{"baseColorFactor":[0.6,0.72,0.78,0.22],"metallicFactor":0,"roughnessFactor":1}}],"buffers":[{"byteLength":62112,"uri":"data:application/octet-stream;base64,"}],"bufferViews":[{"buffer":0,"byteOffset":0,"byteLength":336},{"buffer":0,"byteOffset":336,"byteLength":144},{"buffer":0,"byteOffset":480,"byteLength":336},{"buffer":0,"byteOffset":816,"byteLength":144},{"buffer":0,"byteOffset":960,"byteLength":336},{"buffer":0,"byteOffset":1296,"byteLength":144},{"buffer":0,"byteOffset":1440,"byteLength":960},{"buffer":0,"byteOffset":2400,"byteLength":384},{"buffer":0,"byteOffset":2784,"byteLength":336},{"buffer":0,"byteOffset":3120,"byteLength":144},{"buffer":0,"byteOffset":3264,"byteLength":336},{"buffer":0,"byteOffset":3600,"byteLength":144},{"buffer":0,"byteOffset":3744,"byteLength":336},{"buffer":0,"byteOffset":4080,"byteLength":144},{"buffer":0,"byteOffset":4224,"byteLength":336},{"buffer":0,"byteOffset":4560,"byteLength":144},{"buffer":0,"byteOffset":4704,"byteLength":336},{"buffer":0,"byteOffset":5040,"byteLength":144},{"buffer":0,"byteOffset":5184,"byteLength":336},{"buffer":0,"byteOffset":5520,"byteLength":144},{"buffer":0,"byteOffset":5664,"byteLength":336},{"buffer":0,"byteOffset":6000,"byteLength":144},{"buffer":0,"byteOffset":6144,"byteLength":336},{"buffer":0,"byteOffset":6480,"byteLength":144},{"buffer":0,"byteOffset":6624,"byteLength":336},{"buffer":0,"byteOffset":6960,"byteLength":144},{"buffer":0,"byteOffset":7104,"byteLength":960},{"buffer":0,"byteOffset":8064,"byteLength":384},{"buffer":0,"byteOffset":8448,"byteLength":336},{"buffer":0,"byteOffset":8784,"byteLength":144},{"buffer":0,"byteOffset":8928,"byteLength":336},{"buffer":0,"byteOffset":9264,"byteLength":144},{"buffer":0,"byteOffset":9408,"byteLength":960},{"buffer":0,"byteOffset":10368,"byteLength":384},{"buffer":0,"byteOffset":10752,"byteLength":336},{"buffer":0,"byteOffset":11088,"byteLength":144},{"buffer":0,"byteOffset":11232,"byteLength":336},{"buffer":0,"byteOffset":11568,"byteLength":144},{"buffer":0,"byteOffset":11712,"byteLength":336},{"buffer":0,"byteOffset":12048,"byteLength":144},{"buffer":0,"byteOffset":12192,"byteLength":816},{"buffer":0,"byteOffset":13008,"byteLength":336},{"buffer":0,"byteOffset":13344,"byteLength":960},{"buffer":0,"byteOffset":14304,"byteLength":384},{"buffer":0,"byteOffset":14688,"byteLength":288},{"buffer":0,"byteOffset":14976,"byteLength":144},{"buffer":0,"byteOffset":15120,"byteLength":288},{"buffer":0,"byteOffset":15408,"byteLength":144},{"buffer":0,"byteOffset":15552,"byteLength":288},{"buffer":0,"byteOffset":15840,"byteLength":144},{"buffer":0,"byteOffset":15984,"byteLength":960},{"buffer":0,"byteOffset":16944,"byteLength":1872},{"buffer":0,"byteOffset":18816,"byteLength":960},{"buffer":0,"byteOffset":19776,"byteLength":1872},{"buffer":0,"byteOffset":21648,"byteLength":13776},{"buffer":0,"byteOffset":35424,"byteLength":24864},{"buffer":0,"byteOffset":60288,"byteLength":1296},{"buffer":0,"byteOffset":61584,"byteLength":528}],"accessors":[{"bufferView":0,"componentType":5126,"count":28,"type":"VEC3","min":[-5.278708935518,-1.120530128479004,-5.104429247176308],"max":[3.6436276443192694,1.120530128479004,-4.90442919513021]},{"bufferView":1,"componentType":5125,"count":36,"type":"SCALAR"},{"bufferView":2,"componentType":5126,"count":28,"type":"VEC3","min":[-5.278709166688999,-1.120530128479004,-5.1044289708652215],"max":[-5.078708893613736,1.120530128479004,2.1673395276584344]},{"bufferView":3,"componentType":5125,"count":36,"type":"SCALAR"},{"bufferView":4,"componentType":5126,"count":28,"type":"VEC3","min":[5.082009735521329,-1.120530128479004,-4.087242028055531],"max":[5.282010135236727,1.120530128479004,-1.907761433782238]},{"bufferView":5,"componentType":5125,"count":36,"type":"SCALAR"},{"bufferView":6,"componentType":5126,"count":80,"type":"VEC3","min":[-5.2787085489408305,-1.120530128479004,4.904427322553628],"max":[0.16023454228799805,1.120530128479004,5.104427543474204]},{"bufferView":7,"componentType":5125,"count":96,"type":"SCALAR"},{"bufferView":8,"componentType":5126,"count":28,"type":"VEC3","min":[-5.2787082966062515,-1.120530128479004,1.9673388340440707],"max":[-5.07870785634785,1.120530128479004,5.104428019288449]},{"bufferView":9,"componentType":5125,"count":36,"type":"SCALAR"},{"bufferView":10,"componentType":5126,"count":28,"type":"VEC3","min":[-3.576660537157929,-1.120530128479004,2.2698913705626502],"max":[-1.591484642590606,1.120530128479004,2.4698919164856896]},{"bufferView":11,"componentType":5125,"count":36,"type":"SCALAR"},{"bufferView":12,"componentType":5126,"count":28,"type":"VEC3","min":[-3.5766609563394676,-1.120530128479004,1.9498710001752486],"max":[-3.376660500569712,1.120530128479004,2.469892564888228]},{"bufferView":13,"componentType":5125,"count":36,"type":"SCALAR"},{"bufferView":14,"componentType":5126,"count":28,"type":"VEC3","min":[-5.282010792103723,-1.120530128479004,1.946569228439376],"max":[-4.5555069462385624,1.120530128479004,2.170642113418534]},{"bufferView":15,"componentType":5125,"count":36,"type":"SCALAR"},{"bufferView":16,"componentType":5126,"count":28,"type":"VEC3","min":[-3.5767807977015442,-1.120530128479004,1.572723737162517],"max":[-3.3760876639073425,1.120530128479004,2.149990686970784]},{"bufferView":17,"componentType":5125,"count":36,"type":"SCALAR"},{"bufferView":18,"componentType":5126,"count":28,"type":"VEC3","min":[-3.605735826697436,-1.120530128479004,1.543316342120681],"max":[-1.5619573114251226,1.120530128479004,2.499419711346116]},{"bufferView":19,"componentType":5125,"count":36,"type":"SCALAR"},{"bufferView":20,"componentType":5126,"count":28,"type":"VEC3","min":[3.5248863659909033,-1.120530128479004,-2.107761321019387],"max":[5.282010320563051,1.120530128479004,-1.9077611589915993]},{"bufferView":21,"componentType":5125,"count":36,"type":"SCALAR"},{"bufferView":22,"componentType":5126,"count":28,"type":"VEC3","min":[3.5248856175283816,-1.120530128479004,-2.1077612846473275],"max":[3.7248863351007078,1.120530128479004,1.8178791015723763]},{"bufferView":23,"componentType":5125,"count":36,"type":"SCALAR"},{"bufferView":24,"componentType":5126,"count":28,"type":"VEC3","min":[-0.039765593916128855,-1.120530128479004,1.6178794962706615],"max":[0.16023468723888276,1.120530128479004,5.104427708929534]},{"bufferView":25,"componentType":5125,"count":36,"type":"SCALAR"},{"bufferView":26,"componentType":5126,"count":80,"type":"VEC3","min":[-0.0397659496645959,-1.120530128479004,1.61787905870776],"max":[3.7248870090823205,1.120530128479004,1.8178795319904821]},{"bufferView":27,"componentType":5125,"count":96,"type":"SCALAR"},{"bufferView":28,"componentType":5126,"count":28,"type":"VEC3","min":[3.5333556585926074,-1.120530128479004,-4.087241996205489],"max":[5.282009894309614,1.120530128479004,-3.8872417620056465]},{"bufferView":29,"componentType":5125,"count":36,"type":"SCALAR"},{"bufferView":30,"componentType":5126,"count":28,"type":"VEC3","min":[3.443628425368233,-1.120530128479004,-4.08724170689566],"max":[3.733355765572624,1.120530128479004,-3.8872416936876073]},{"bufferView":31,"componentType":5125,"count":36,"type":"SCALAR"},{"bufferView":32,"componentType":5126,"count":80,"type":"VEC3","min":[3.524459342774311,-1.120530128479004,-4.087668515027047],"max":[3.73378278750523,1.120530128479004,-1.9073342315549844]},{"bufferView":33,"componentType":5125,"count":96,"type":"SCALAR"},{"bufferView":34,"componentType":5126,"count":28,"type":"VEC3","min":[-1.8021842121048335,-1.120530128479004,1.5820081245173574],"max":[-1.50345505486294,1.120530128479004,2.480591057611549]},{"bufferView":35,"componentType":5125,"count":36,"type":"SCALAR"},{"bufferView":36,"componentType":5126,"count":28,"type":"VEC3","min":[-3.5772684497333636,-1.120530128479004,1.5717827209190973],"max":[-1.5130940990947612,1.120530128479004,1.793769227628266]},{"bufferView":37,"componentType":5125,"count":36,"type":"SCALAR"},{"bufferView":38,"componentType":5126,"count":28,"type":"VEC3","min":[-1.71564662176417,-1.120530128479004,1.5912158496157196],"max":[0.16172635275171876,1.120530128479004,1.819371461175296]},{"bufferView":39,"componentType":5125,"count":36,"type":"SCALAR"},{"bufferView":40,"componentType":5126,"count":68,"type":"VEC3","min":[3.443628344556862,-1.120530128479004,-5.104429377859588],"max":[3.6436284446505964,1.120530128479004,-3.8872417074980787]},{"bufferView":41,"componentType":5125,"count":84,"type":"SCALAR"},{"bufferView":42,"componentType":5126,"count":80,"type":"VEC3","min":[-4.758808466277982,-1.120530128479004,1.9498704521468544],"max":[-3.3766600166932093,1.120530128479004,2.1498705299088097]},{"bufferView":43,"componentType":5125,"count":96,"type":"SCALAR"},{"bufferView":44,"componentType":5126,"count":24,"type":"VEC3","min":[-2.968529709211426,0.4199344515800476,4.9044292577021515],"max":[-1.997921935686033,0.9698352217674255,5.104429497528752]},{"bufferView":45,"componentType":5125,"count":36,"type":"SCALAR"},{"bufferView":46,"componentType":5126,"count":24,"type":"VEC3","min":[1.4606330110466041,0.5249956250190735,1.6178791430373518],"max":[2.312012343224335,0.9134755730628967,1.8178795072655423]},{"bufferView":47,"componentType":5125,"count":36,"type":"SCALAR"},{"bufferView":48,"componentType":5126,"count":24,"type":"VEC3","min":[3.5279099392424857,-1.1205300390720367,-3.49103477559626],"max":[3.731230045602814,0.9128080308437347,-2.713800400552856]},{"bufferView":49,"componentType":5125,"count":36,"type":"SCALAR"},{"bufferView":50,"componentType":5126,"count":80,"type":"VEC3","min":[0.018238122385405786,-0.6816251218549496,-4.225904134610886],"max":[0.04669608935201924,1.0908374327527781,-1.9039129191755315]},{"bufferView":51,"componentType":5125,"count":468,"type":"SCALAR"},{"bufferView":52,"componentType":5126,"count":80,"type":"VEC3","min":[1.0138349668671587,-0.6816251218549496,-4.225904080743664],"max":[1.042293586017061,1.0908374327527781,-1.9039128653083102]},{"bufferView":53,"componentType":5125,"count":468,"type":"SCALAR"},{"bufferView":54,"componentType":5126,"count":1148,"type":"VEC3","min":[0.011023597853842548,-1.1205301738633011,-4.268742326610964],"max":[1.033343833343959,1.0281821389312427,-1.9599643816454795]},{"bufferView":55,"componentType":5125,"count":6216,"type":"SCALAR"},{"bufferView":56,"componentType":5126,"count":108,"type":"VEC3","min":[-5.178708610389008,-1.3305306889125725,-5.004428479421222],"max":[5.182009757212347,-1.1305294577059442,5.004427763643615]},{"bufferView":57,"componentType":5125,"count":132,"type":"SCALAR"}]}
